<svg xmlns="http://www.w3.org/2000/svg" xmlns:xlink="http://www.w3.org/1999/xlink" width="300" zoomAndPan="magnify" viewBox="0 0 224.87999 74.999997" height="100" preserveAspectRatio="xMidYMid meet" version="1.0"><defs><g/></defs><g fill="#000000" fill-opacity="1"><g transform="translate(38.878469, 34.267033)"><g><path d="M 1.5 -20.59375 L 7.46875 -20.59375 C 10.332031 -20.59375 12.78125 -19.613281 14.8125 -17.65625 C 16.84375 -15.707031 17.859375 -13.257812 17.859375 -10.3125 C 17.859375 -7.351562 16.84375 -4.894531 14.8125 -2.9375 C 12.789062 -0.976562 10.34375 0 7.46875 0 L 1.5 0 Z M 6.1875 -4.1875 L 6.921875 -4.1875 C 8.628906 -4.1875 10.03125 -4.765625 11.125 -5.921875 C 12.21875 -7.085938 12.769531 -8.539062 12.78125 -10.28125 C 12.78125 -12.03125 12.234375 -13.488281 11.140625 -14.65625 C 10.054688 -15.820312 8.648438 -16.40625 6.921875 -16.40625 L 6.1875 -16.40625 Z M 6.1875 -4.1875 "/></g></g></g><g fill="#000000" fill-opacity="1"><g transform="translate(57.298433, 34.267033)"><g><path d="M 2.375 -1.578125 C 1.175781 -2.890625 0.578125 -4.492188 0.578125 -6.390625 C 0.578125 -8.285156 1.175781 -9.890625 2.375 -11.203125 C 3.570312 -12.523438 5.09375 -13.1875 6.9375 -13.1875 C 8.632812 -13.1875 10.035156 -12.648438 11.140625 -11.578125 L 11.140625 -12.8125 L 15.5625 -12.8125 L 15.5625 0 L 11.1875 0 L 11.1875 -1.453125 L 11.140625 -1.453125 C 10.035156 -0.234375 8.632812 0.375 6.9375 0.375 C 5.09375 0.375 3.570312 -0.273438 2.375 -1.578125 Z M 6.125 -8.5625 C 5.550781 -8 5.265625 -7.273438 5.265625 -6.390625 C 5.265625 -5.503906 5.539062 -4.78125 6.09375 -4.21875 C 6.644531 -3.664062 7.367188 -3.390625 8.265625 -3.390625 C 9.128906 -3.390625 9.835938 -3.671875 10.390625 -4.234375 C 10.953125 -4.804688 11.234375 -5.523438 11.234375 -6.390625 C 11.234375 -7.273438 10.945312 -8 10.375 -8.5625 C 9.800781 -9.125 9.097656 -9.40625 8.265625 -9.40625 C 7.410156 -9.40625 6.695312 -9.125 6.125 -8.5625 Z M 6.125 -8.5625 "/></g></g></g><g fill="#000000" fill-opacity="1"><g transform="translate(74.345632, 34.267033)"><g><path d="M 1.5 0 L 1.5 -12.8125 L 5.921875 -12.8125 L 5.921875 -10.96875 L 5.96875 -10.96875 C 6 -11.03125 6.050781 -11.109375 6.125 -11.203125 C 6.207031 -11.304688 6.367188 -11.484375 6.609375 -11.734375 C 6.859375 -11.984375 7.125 -12.207031 7.40625 -12.40625 C 7.695312 -12.601562 8.066406 -12.78125 8.515625 -12.9375 C 8.960938 -13.101562 9.421875 -13.1875 9.890625 -13.1875 C 10.367188 -13.1875 10.84375 -13.117188 11.3125 -12.984375 C 11.78125 -12.847656 12.117188 -12.710938 12.328125 -12.578125 L 12.6875 -12.390625 L 10.84375 -8.640625 C 10.289062 -9.109375 9.523438 -9.34375 8.546875 -9.34375 C 8.003906 -9.34375 7.539062 -9.222656 7.15625 -8.984375 C 6.78125 -8.753906 6.515625 -8.472656 6.359375 -8.140625 C 6.203125 -7.804688 6.085938 -7.519531 6.015625 -7.28125 C 5.953125 -7.050781 5.921875 -6.867188 5.921875 -6.734375 L 5.921875 0 Z M 1.5 0 "/></g></g></g><g fill="#000000" fill-opacity="1"><g transform="translate(86.775361, 34.267033)"><g><path d="M 1.5 0 L 1.5 -12.8125 L 5.921875 -12.8125 L 5.921875 -10.96875 L 5.96875 -10.96875 C 6 -11.03125 6.050781 -11.109375 6.125 -11.203125 C 6.207031 -11.304688 6.367188 -11.484375 6.609375 -11.734375 C 6.859375 -11.984375 7.125 -12.207031 7.40625 -12.40625 C 7.695312 -12.601562 8.066406 -12.78125 8.515625 -12.9375 C 8.960938 -13.101562 9.421875 -13.1875 9.890625 -13.1875 C 10.367188 -13.1875 10.84375 -13.117188 11.3125 -12.984375 C 11.78125 -12.847656 12.117188 -12.710938 12.328125 -12.578125 L 12.6875 -12.390625 L 10.84375 -8.640625 C 10.289062 -9.109375 9.523438 -9.34375 8.546875 -9.34375 C 8.003906 -9.34375 7.539062 -9.222656 7.15625 -8.984375 C 6.78125 -8.753906 6.515625 -8.472656 6.359375 -8.140625 C 6.203125 -7.804688 6.085938 -7.519531 6.015625 -7.28125 C 5.953125 -7.050781 5.921875 -6.867188 5.921875 -6.734375 L 5.921875 0 Z M 1.5 0 "/></g></g></g><g fill="#000000" fill-opacity="1"><g transform="translate(99.205091, 34.267033)"><g><path d="M 14.453125 -5.796875 L 5.171875 -5.796875 C 5.171875 -4.890625 5.460938 -4.21875 6.046875 -3.78125 C 6.628906 -3.351562 7.257812 -3.140625 7.9375 -3.140625 C 8.65625 -3.140625 9.222656 -3.234375 9.640625 -3.421875 C 10.054688 -3.617188 10.53125 -4 11.0625 -4.5625 L 14.25 -2.96875 C 12.925781 -0.738281 10.710938 0.375 7.609375 0.375 C 5.679688 0.375 4.023438 -0.285156 2.640625 -1.609375 C 1.265625 -2.929688 0.578125 -4.523438 0.578125 -6.390625 C 0.578125 -8.253906 1.265625 -9.851562 2.640625 -11.1875 C 4.023438 -12.519531 5.679688 -13.1875 7.609375 -13.1875 C 9.640625 -13.1875 11.289062 -12.597656 12.5625 -11.421875 C 13.84375 -10.242188 14.484375 -8.566406 14.484375 -6.390625 C 14.484375 -6.085938 14.472656 -5.890625 14.453125 -5.796875 Z M 5.296875 -8.234375 L 10.15625 -8.234375 C 10.0625 -8.898438 9.800781 -9.410156 9.375 -9.765625 C 8.945312 -10.128906 8.398438 -10.3125 7.734375 -10.3125 C 7.003906 -10.3125 6.421875 -10.117188 5.984375 -9.734375 C 5.554688 -9.347656 5.328125 -8.847656 5.296875 -8.234375 Z M 5.296875 -8.234375 "/></g></g></g><g fill="#000000" fill-opacity="1"><g transform="translate(114.255549, 34.267033)"><g><path d="M 1.5 0 L 1.5 -12.8125 L 5.921875 -12.8125 L 5.921875 -11.453125 L 5.96875 -11.453125 C 7.113281 -12.609375 8.335938 -13.1875 9.640625 -13.1875 C 10.273438 -13.1875 10.898438 -13.101562 11.515625 -12.9375 C 12.140625 -12.769531 12.738281 -12.507812 13.3125 -12.15625 C 13.894531 -11.8125 14.363281 -11.316406 14.71875 -10.671875 C 15.070312 -10.035156 15.25 -9.289062 15.25 -8.4375 L 15.25 0 L 10.84375 0 L 10.84375 -7.234375 C 10.84375 -7.898438 10.628906 -8.484375 10.203125 -8.984375 C 9.773438 -9.484375 9.222656 -9.734375 8.546875 -9.734375 C 7.878906 -9.734375 7.273438 -9.472656 6.734375 -8.953125 C 6.191406 -8.441406 5.921875 -7.867188 5.921875 -7.234375 L 5.921875 0 Z M 1.5 0 "/></g></g></g><g fill="#000000" fill-opacity="1"><g transform="translate(130.753645, 34.267033)"><g/></g></g><g fill="#000000" fill-opacity="1"><g transform="translate(137.567528, 34.267033)"><g><path d="M 0.203125 -16.484375 L 0.203125 -20.59375 L 14.6875 -20.59375 L 14.6875 -16.484375 L 9.78125 -16.484375 L 9.78125 0 L 5.09375 0 L 5.09375 -16.484375 Z M 0.203125 -16.484375 "/></g></g></g><g fill="#000000" fill-opacity="1"><g transform="translate(152.443272, 34.267033)"><g><path d="M 2.375 -1.578125 C 1.175781 -2.890625 0.578125 -4.492188 0.578125 -6.390625 C 0.578125 -8.285156 1.175781 -9.890625 2.375 -11.203125 C 3.570312 -12.523438 5.09375 -13.1875 6.9375 -13.1875 C 8.632812 -13.1875 10.035156 -12.648438 11.140625 -11.578125 L 11.140625 -12.8125 L 15.5625 -12.8125 L 15.5625 0 L 11.1875 0 L 11.1875 -1.453125 L 11.140625 -1.453125 C 10.035156 -0.234375 8.632812 0.375 6.9375 0.375 C 5.09375 0.375 3.570312 -0.273438 2.375 -1.578125 Z M 6.125 -8.5625 C 5.550781 -8 5.265625 -7.273438 5.265625 -6.390625 C 5.265625 -5.503906 5.539062 -4.78125 6.09375 -4.21875 C 6.644531 -3.664062 7.367188 -3.390625 8.265625 -3.390625 C 9.128906 -3.390625 9.835938 -3.671875 10.390625 -4.234375 C 10.953125 -4.804688 11.234375 -5.523438 11.234375 -6.390625 C 11.234375 -7.273438 10.945312 -8 10.375 -8.5625 C 9.800781 -9.125 9.097656 -9.40625 8.265625 -9.40625 C 7.410156 -9.40625 6.695312 -9.125 6.125 -8.5625 Z M 6.125 -8.5625 "/></g></g></g><g fill="#000000" fill-opacity="1"><g transform="translate(169.490471, 34.267033)"><g><path d="M 1.5 0 L 1.5 -12.8125 L 5.921875 -12.8125 L 5.921875 -11.453125 L 5.96875 -11.453125 C 7.113281 -12.609375 8.335938 -13.1875 9.640625 -13.1875 C 10.273438 -13.1875 10.898438 -13.101562 11.515625 -12.9375 C 12.140625 -12.769531 12.738281 -12.507812 13.3125 -12.15625 C 13.894531 -11.8125 14.363281 -11.316406 14.71875 -10.671875 C 15.070312 -10.035156 15.25 -9.289062 15.25 -8.4375 L 15.25 0 L 10.84375 0 L 10.84375 -7.234375 C 10.84375 -7.898438 10.628906 -8.484375 10.203125 -8.984375 C 9.773438 -9.484375 9.222656 -9.734375 8.546875 -9.734375 C 7.878906 -9.734375 7.273438 -9.472656 6.734375 -8.953125 C 6.191406 -8.441406 5.921875 -7.867188 5.921875 -7.234375 L 5.921875 0 Z M 1.5 0 "/></g></g></g><g fill="#000000" fill-opacity="1"><g transform="translate(59.881523, 54.059807)"><g><path d="M 2.96875 -9.890625 L 2.96875 0 L 0.71875 0 L 0.71875 -9.890625 Z M 2.96875 -9.890625 "/></g></g></g><g fill="#000000" fill-opacity="1"><g transform="translate(63.568352, 54.059807)"><g><path d="M 0.71875 0 L 0.71875 -6.140625 L 2.84375 -6.140625 L 2.84375 -5.5 L 2.859375 -5.5 C 3.410156 -6.050781 4 -6.328125 4.625 -6.328125 C 4.925781 -6.328125 5.226562 -6.285156 5.53125 -6.203125 C 5.832031 -6.128906 6.117188 -6.003906 6.390625 -5.828125 C 6.671875 -5.660156 6.894531 -5.421875 7.0625 -5.109375 C 7.238281 -4.804688 7.328125 -4.453125 7.328125 -4.046875 L 7.328125 0 L 5.203125 0 L 5.203125 -3.46875 C 5.203125 -3.789062 5.097656 -4.070312 4.890625 -4.3125 C 4.691406 -4.550781 4.425781 -4.671875 4.09375 -4.671875 C 3.78125 -4.671875 3.492188 -4.546875 3.234375 -4.296875 C 2.972656 -4.054688 2.84375 -3.78125 2.84375 -3.46875 L 2.84375 0 Z M 0.71875 0 "/></g></g></g><g fill="#000000" fill-opacity="1"><g transform="translate(71.48066, 54.059807)"><g><path d="M 1.078125 -6.140625 L 1.078125 -8.4375 L 3.203125 -8.4375 L 3.203125 -6.140625 L 4.5 -6.140625 L 4.5 -4.53125 L 3.203125 -4.53125 L 3.203125 -2.578125 C 3.203125 -2.003906 3.359375 -1.71875 3.671875 -1.71875 C 3.753906 -1.71875 3.835938 -1.734375 3.921875 -1.765625 C 4.015625 -1.804688 4.085938 -1.84375 4.140625 -1.875 L 4.203125 -1.921875 L 4.734375 -0.203125 C 4.273438 0.0546875 3.753906 0.1875 3.171875 0.1875 C 2.773438 0.1875 2.429688 0.117188 2.140625 -0.015625 C 1.859375 -0.160156 1.640625 -0.351562 1.484375 -0.59375 C 1.335938 -0.832031 1.234375 -1.078125 1.171875 -1.328125 C 1.109375 -1.585938 1.078125 -1.867188 1.078125 -2.171875 L 1.078125 -4.53125 L 0.1875 -4.53125 L 0.1875 -6.140625 Z M 1.078125 -6.140625 "/></g></g></g><g fill="#000000" fill-opacity="1"><g transform="translate(76.208895, 54.059807)"><g><path d="M 6.9375 -2.78125 L 2.484375 -2.78125 C 2.484375 -2.351562 2.617188 -2.035156 2.890625 -1.828125 C 3.171875 -1.617188 3.476562 -1.515625 3.8125 -1.515625 C 4.15625 -1.515625 4.425781 -1.554688 4.625 -1.640625 C 4.820312 -1.734375 5.050781 -1.914062 5.3125 -2.1875 L 6.84375 -1.421875 C 6.207031 -0.347656 5.144531 0.1875 3.65625 0.1875 C 2.726562 0.1875 1.929688 -0.128906 1.265625 -0.765625 C 0.609375 -1.398438 0.28125 -2.164062 0.28125 -3.0625 C 0.28125 -3.957031 0.609375 -4.722656 1.265625 -5.359375 C 1.929688 -6.003906 2.726562 -6.328125 3.65625 -6.328125 C 4.632812 -6.328125 5.425781 -6.046875 6.03125 -5.484375 C 6.644531 -4.921875 6.953125 -4.113281 6.953125 -3.0625 C 6.953125 -2.925781 6.945312 -2.832031 6.9375 -2.78125 Z M 2.546875 -3.953125 L 4.875 -3.953125 C 4.832031 -4.273438 4.707031 -4.519531 4.5 -4.6875 C 4.289062 -4.863281 4.03125 -4.953125 3.71875 -4.953125 C 3.363281 -4.953125 3.082031 -4.859375 2.875 -4.671875 C 2.664062 -4.484375 2.554688 -4.242188 2.546875 -3.953125 Z M 2.546875 -3.953125 "/></g></g></g><g fill="#000000" fill-opacity="1"><g transform="translate(83.426928, 54.059807)"><g><path d="M 0.71875 0 L 0.71875 -6.140625 L 2.84375 -6.140625 L 2.84375 -5.265625 L 2.859375 -5.265625 C 2.878906 -5.296875 2.90625 -5.332031 2.9375 -5.375 C 2.976562 -5.425781 3.054688 -5.507812 3.171875 -5.625 C 3.296875 -5.75 3.425781 -5.859375 3.5625 -5.953125 C 3.695312 -6.046875 3.867188 -6.128906 4.078125 -6.203125 C 4.296875 -6.285156 4.519531 -6.328125 4.75 -6.328125 C 4.976562 -6.328125 5.203125 -6.296875 5.421875 -6.234375 C 5.648438 -6.171875 5.816406 -6.109375 5.921875 -6.046875 L 6.09375 -5.9375 L 5.203125 -4.140625 C 4.941406 -4.367188 4.570312 -4.484375 4.09375 -4.484375 C 3.84375 -4.484375 3.625 -4.425781 3.4375 -4.3125 C 3.25 -4.195312 3.117188 -4.0625 3.046875 -3.90625 C 2.972656 -3.75 2.921875 -3.613281 2.890625 -3.5 C 2.859375 -3.382812 2.84375 -3.296875 2.84375 -3.234375 L 2.84375 0 Z M 0.71875 0 "/></g></g></g><g fill="#000000" fill-opacity="1"><g transform="translate(89.388098, 54.059807)"><g><path d="M 0.921875 -9.578125 C 1.171875 -9.828125 1.46875 -9.953125 1.8125 -9.953125 C 2.15625 -9.953125 2.445312 -9.828125 2.6875 -9.578125 C 2.9375 -9.328125 3.0625 -9.03125 3.0625 -8.6875 C 3.0625 -8.34375 2.9375 -8.046875 2.6875 -7.796875 C 2.445312 -7.554688 2.15625 -7.4375 1.8125 -7.4375 C 1.46875 -7.4375 1.171875 -7.554688 0.921875 -7.796875 C 0.671875 -8.046875 0.546875 -8.34375 0.546875 -8.6875 C 0.546875 -9.03125 0.671875 -9.328125 0.921875 -9.578125 Z M 0.71875 -6.140625 L 0.71875 0 L 2.84375 0 L 2.84375 -6.140625 Z M 0.71875 -6.140625 "/></g></g></g><g fill="#000000" fill-opacity="1"><g transform="translate(93.003097, 54.059807)"><g><path d="M 1.296875 -0.71875 C 0.617188 -1.332031 0.28125 -2.113281 0.28125 -3.0625 C 0.28125 -4.019531 0.632812 -4.800781 1.34375 -5.40625 C 2.050781 -6.019531 2.929688 -6.328125 3.984375 -6.328125 C 5.015625 -6.328125 5.878906 -6.019531 6.578125 -5.40625 C 7.285156 -4.789062 7.640625 -4.007812 7.640625 -3.0625 C 7.640625 -2.125 7.296875 -1.347656 6.609375 -0.734375 C 5.921875 -0.117188 5.046875 0.1875 3.984375 0.1875 C 2.878906 0.1875 1.984375 -0.113281 1.296875 -0.71875 Z M 2.9375 -4.109375 C 2.664062 -3.835938 2.53125 -3.488281 2.53125 -3.0625 C 2.53125 -2.644531 2.660156 -2.300781 2.921875 -2.03125 C 3.179688 -1.757812 3.53125 -1.625 3.96875 -1.625 C 4.382812 -1.625 4.722656 -1.757812 4.984375 -2.03125 C 5.253906 -2.300781 5.390625 -2.644531 5.390625 -3.0625 C 5.390625 -3.488281 5.25 -3.835938 4.96875 -4.109375 C 4.695312 -4.378906 4.363281 -4.515625 3.96875 -4.515625 C 3.5625 -4.515625 3.21875 -4.378906 2.9375 -4.109375 Z M 2.9375 -4.109375 "/></g></g></g><g fill="#000000" fill-opacity="1"><g transform="translate(100.915405, 54.059807)"><g><path d="M 0.71875 0 L 0.71875 -6.140625 L 2.84375 -6.140625 L 2.84375 -5.265625 L 2.859375 -5.265625 C 2.878906 -5.296875 2.90625 -5.332031 2.9375 -5.375 C 2.976562 -5.425781 3.054688 -5.507812 3.171875 -5.625 C 3.296875 -5.75 3.425781 -5.859375 3.5625 -5.953125 C 3.695312 -6.046875 3.867188 -6.128906 4.078125 -6.203125 C 4.296875 -6.285156 4.519531 -6.328125 4.75 -6.328125 C 4.976562 -6.328125 5.203125 -6.296875 5.421875 -6.234375 C 5.648438 -6.171875 5.816406 -6.109375 5.921875 -6.046875 L 6.09375 -5.9375 L 5.203125 -4.140625 C 4.941406 -4.367188 4.570312 -4.484375 4.09375 -4.484375 C 3.84375 -4.484375 3.625 -4.425781 3.4375 -4.3125 C 3.25 -4.195312 3.117188 -4.0625 3.046875 -3.90625 C 2.972656 -3.75 2.921875 -3.613281 2.890625 -3.5 C 2.859375 -3.382812 2.84375 -3.296875 2.84375 -3.234375 L 2.84375 0 Z M 0.71875 0 "/></g></g></g><g fill="#000000" fill-opacity="1"><g transform="translate(106.876575, 54.059807)"><g/></g></g><g fill="#000000" fill-opacity="1"><g transform="translate(110.144442, 54.059807)"><g><path d="M 0.71875 -9.890625 L 3.578125 -9.890625 C 4.953125 -9.890625 6.125 -9.421875 7.09375 -8.484375 C 8.070312 -7.546875 8.5625 -6.367188 8.5625 -4.953125 C 8.5625 -3.523438 8.078125 -2.34375 7.109375 -1.40625 C 6.140625 -0.46875 4.960938 0 3.578125 0 L 0.71875 0 Z M 2.96875 -2.015625 L 3.3125 -2.015625 C 4.132812 -2.015625 4.804688 -2.289062 5.328125 -2.84375 C 5.859375 -3.394531 6.128906 -4.09375 6.140625 -4.9375 C 6.140625 -5.78125 5.875 -6.476562 5.34375 -7.03125 C 4.820312 -7.59375 4.144531 -7.875 3.3125 -7.875 L 2.96875 -7.875 Z M 2.96875 -2.015625 "/></g></g></g><g fill="#000000" fill-opacity="1"><g transform="translate(118.978457, 54.059807)"><g><path d="M 6.9375 -2.78125 L 2.484375 -2.78125 C 2.484375 -2.351562 2.617188 -2.035156 2.890625 -1.828125 C 3.171875 -1.617188 3.476562 -1.515625 3.8125 -1.515625 C 4.15625 -1.515625 4.425781 -1.554688 4.625 -1.640625 C 4.820312 -1.734375 5.050781 -1.914062 5.3125 -2.1875 L 6.84375 -1.421875 C 6.207031 -0.347656 5.144531 0.1875 3.65625 0.1875 C 2.726562 0.1875 1.929688 -0.128906 1.265625 -0.765625 C 0.609375 -1.398438 0.28125 -2.164062 0.28125 -3.0625 C 0.28125 -3.957031 0.609375 -4.722656 1.265625 -5.359375 C 1.929688 -6.003906 2.726562 -6.328125 3.65625 -6.328125 C 4.632812 -6.328125 5.425781 -6.046875 6.03125 -5.484375 C 6.644531 -4.921875 6.953125 -4.113281 6.953125 -3.0625 C 6.953125 -2.925781 6.945312 -2.832031 6.9375 -2.78125 Z M 2.546875 -3.953125 L 4.875 -3.953125 C 4.832031 -4.273438 4.707031 -4.519531 4.5 -4.6875 C 4.289062 -4.863281 4.03125 -4.953125 3.71875 -4.953125 C 3.363281 -4.953125 3.082031 -4.859375 2.875 -4.671875 C 2.664062 -4.484375 2.554688 -4.242188 2.546875 -3.953125 Z M 2.546875 -3.953125 "/></g></g></g><g fill="#000000" fill-opacity="1"><g transform="translate(126.196491, 54.059807)"><g><path d="M 3.390625 -6.328125 C 3.742188 -6.328125 4.09375 -6.285156 4.4375 -6.203125 C 4.78125 -6.128906 5.035156 -6.050781 5.203125 -5.96875 L 5.453125 -5.84375 L 4.75 -4.453125 C 4.269531 -4.710938 3.816406 -4.84375 3.390625 -4.84375 C 3.148438 -4.84375 2.976562 -4.816406 2.875 -4.765625 C 2.78125 -4.710938 2.734375 -4.613281 2.734375 -4.46875 C 2.734375 -4.4375 2.734375 -4.40625 2.734375 -4.375 C 2.742188 -4.34375 2.757812 -4.3125 2.78125 -4.28125 C 2.8125 -4.257812 2.835938 -4.238281 2.859375 -4.21875 C 2.878906 -4.195312 2.910156 -4.171875 2.953125 -4.140625 C 3.003906 -4.117188 3.039062 -4.101562 3.0625 -4.09375 C 3.09375 -4.082031 3.140625 -4.0625 3.203125 -4.03125 C 3.273438 -4.007812 3.328125 -3.992188 3.359375 -3.984375 C 3.390625 -3.972656 3.441406 -3.953125 3.515625 -3.921875 C 3.585938 -3.898438 3.644531 -3.890625 3.6875 -3.890625 C 3.9375 -3.816406 4.148438 -3.734375 4.328125 -3.640625 C 4.515625 -3.554688 4.707031 -3.4375 4.90625 -3.28125 C 5.113281 -3.132812 5.273438 -2.941406 5.390625 -2.703125 C 5.503906 -2.472656 5.5625 -2.210938 5.5625 -1.921875 C 5.5625 -0.515625 4.59375 0.1875 2.65625 0.1875 C 2.207031 0.1875 1.785156 0.117188 1.390625 -0.015625 C 0.992188 -0.160156 0.710938 -0.300781 0.546875 -0.4375 L 0.28125 -0.640625 L 1.140625 -2.09375 C 1.203125 -2.039062 1.285156 -1.972656 1.390625 -1.890625 C 1.492188 -1.816406 1.679688 -1.710938 1.953125 -1.578125 C 2.222656 -1.453125 2.457031 -1.390625 2.65625 -1.390625 C 3.09375 -1.390625 3.3125 -1.535156 3.3125 -1.828125 C 3.3125 -1.960938 3.253906 -2.066406 3.140625 -2.140625 C 3.035156 -2.222656 2.847656 -2.3125 2.578125 -2.40625 C 2.316406 -2.5 2.109375 -2.585938 1.953125 -2.671875 C 1.566406 -2.867188 1.257812 -3.09375 1.03125 -3.34375 C 0.8125 -3.601562 0.703125 -3.9375 0.703125 -4.34375 C 0.703125 -4.96875 0.941406 -5.453125 1.421875 -5.796875 C 1.910156 -6.148438 2.566406 -6.328125 3.390625 -6.328125 Z M 3.390625 -6.328125 "/></g></g></g><g fill="#000000" fill-opacity="1"><g transform="translate(132.08583, 54.059807)"><g><path d="M 0.921875 -9.578125 C 1.171875 -9.828125 1.46875 -9.953125 1.8125 -9.953125 C 2.15625 -9.953125 2.445312 -9.828125 2.6875 -9.578125 C 2.9375 -9.328125 3.0625 -9.03125 3.0625 -8.6875 C 3.0625 -8.34375 2.9375 -8.046875 2.6875 -7.796875 C 2.445312 -7.554688 2.15625 -7.4375 1.8125 -7.4375 C 1.46875 -7.4375 1.171875 -7.554688 0.921875 -7.796875 C 0.671875 -8.046875 0.546875 -8.34375 0.546875 -8.6875 C 0.546875 -9.03125 0.671875 -9.328125 0.921875 -9.578125 Z M 0.71875 -6.140625 L 0.71875 0 L 2.84375 0 L 2.84375 -6.140625 Z M 0.71875 -6.140625 "/></g></g></g><g fill="#000000" fill-opacity="1"><g transform="translate(135.700829, 54.059807)"><g><path d="M 0.4375 1.515625 L 2.1875 0.65625 C 2.5 1.1875 3.050781 1.453125 3.84375 1.453125 C 4.207031 1.453125 4.546875 1.332031 4.859375 1.09375 C 5.179688 0.863281 5.34375 0.503906 5.34375 0.015625 L 5.34375 -0.4375 C 4.96875 -0.0195312 4.296875 0.1875 3.328125 0.1875 C 2.441406 0.1875 1.710938 -0.125 1.140625 -0.75 C 0.566406 -1.382812 0.28125 -2.15625 0.28125 -3.0625 C 0.28125 -3.976562 0.566406 -4.75 1.140625 -5.375 C 1.710938 -6.007812 2.441406 -6.328125 3.328125 -6.328125 C 4.117188 -6.328125 4.78125 -6.082031 5.3125 -5.59375 L 5.34375 -5.59375 L 5.34375 -6.140625 L 7.46875 -6.140625 L 7.46875 0.171875 C 7.46875 1.171875 7.132812 1.941406 6.46875 2.484375 C 5.8125 3.023438 4.9375 3.296875 3.84375 3.296875 C 2.082031 3.296875 0.945312 2.703125 0.4375 1.515625 Z M 2.9375 -4.109375 C 2.664062 -3.835938 2.53125 -3.488281 2.53125 -3.0625 C 2.53125 -2.644531 2.660156 -2.300781 2.921875 -2.03125 C 3.179688 -1.757812 3.53125 -1.625 3.96875 -1.625 C 4.382812 -1.625 4.722656 -1.757812 4.984375 -2.03125 C 5.253906 -2.300781 5.390625 -2.644531 5.390625 -3.0625 C 5.390625 -3.488281 5.25 -3.835938 4.96875 -4.109375 C 4.695312 -4.378906 4.363281 -4.515625 3.96875 -4.515625 C 3.5625 -4.515625 3.21875 -4.378906 2.9375 -4.109375 Z M 2.9375 -4.109375 "/></g></g></g><g fill="#000000" fill-opacity="1"><g transform="translate(143.876485, 54.059807)"><g><path d="M 0.71875 0 L 0.71875 -6.140625 L 2.84375 -6.140625 L 2.84375 -5.5 L 2.859375 -5.5 C 3.410156 -6.050781 4 -6.328125 4.625 -6.328125 C 4.925781 -6.328125 5.226562 -6.285156 5.53125 -6.203125 C 5.832031 -6.128906 6.117188 -6.003906 6.390625 -5.828125 C 6.671875 -5.660156 6.894531 -5.421875 7.0625 -5.109375 C 7.238281 -4.804688 7.328125 -4.453125 7.328125 -4.046875 L 7.328125 0 L 5.203125 0 L 5.203125 -3.46875 C 5.203125 -3.789062 5.097656 -4.070312 4.890625 -4.3125 C 4.691406 -4.550781 4.425781 -4.671875 4.09375 -4.671875 C 3.78125 -4.671875 3.492188 -4.546875 3.234375 -4.296875 C 2.972656 -4.054688 2.84375 -3.78125 2.84375 -3.46875 L 2.84375 0 Z M 0.71875 0 "/></g></g></g><g fill="#000000" fill-opacity="1"><g transform="translate(151.788793, 54.059807)"><g><path d="M 6.9375 -2.78125 L 2.484375 -2.78125 C 2.484375 -2.351562 2.617188 -2.035156 2.890625 -1.828125 C 3.171875 -1.617188 3.476562 -1.515625 3.8125 -1.515625 C 4.15625 -1.515625 4.425781 -1.554688 4.625 -1.640625 C 4.820312 -1.734375 5.050781 -1.914062 5.3125 -2.1875 L 6.84375 -1.421875 C 6.207031 -0.347656 5.144531 0.1875 3.65625 0.1875 C 2.726562 0.1875 1.929688 -0.128906 1.265625 -0.765625 C 0.609375 -1.398438 0.28125 -2.164062 0.28125 -3.0625 C 0.28125 -3.957031 0.609375 -4.722656 1.265625 -5.359375 C 1.929688 -6.003906 2.726562 -6.328125 3.65625 -6.328125 C 4.632812 -6.328125 5.425781 -6.046875 6.03125 -5.484375 C 6.644531 -4.921875 6.953125 -4.113281 6.953125 -3.0625 C 6.953125 -2.925781 6.945312 -2.832031 6.9375 -2.78125 Z M 2.546875 -3.953125 L 4.875 -3.953125 C 4.832031 -4.273438 4.707031 -4.519531 4.5 -4.6875 C 4.289062 -4.863281 4.03125 -4.953125 3.71875 -4.953125 C 3.363281 -4.953125 3.082031 -4.859375 2.875 -4.671875 C 2.664062 -4.484375 2.554688 -4.242188 2.546875 -3.953125 Z M 2.546875 -3.953125 "/></g></g></g><g fill="#000000" fill-opacity="1"><g transform="translate(159.006826, 54.059807)"><g><path d="M 0.71875 0 L 0.71875 -6.140625 L 2.84375 -6.140625 L 2.84375 -5.265625 L 2.859375 -5.265625 C 2.878906 -5.296875 2.90625 -5.332031 2.9375 -5.375 C 2.976562 -5.425781 3.054688 -5.507812 3.171875 -5.625 C 3.296875 -5.75 3.425781 -5.859375 3.5625 -5.953125 C 3.695312 -6.046875 3.867188 -6.128906 4.078125 -6.203125 C 4.296875 -6.285156 4.519531 -6.328125 4.75 -6.328125 C 4.976562 -6.328125 5.203125 -6.296875 5.421875 -6.234375 C 5.648438 -6.171875 5.816406 -6.109375 5.921875 -6.046875 L 6.09375 -5.9375 L 5.203125 -4.140625 C 4.941406 -4.367188 4.570312 -4.484375 4.09375 -4.484375 C 3.84375 -4.484375 3.625 -4.425781 3.4375 -4.3125 C 3.25 -4.195312 3.117188 -4.0625 3.046875 -3.90625 C 2.972656 -3.75 2.921875 -3.613281 2.890625 -3.5 C 2.859375 -3.382812 2.84375 -3.296875 2.84375 -3.234375 L 2.84375 0 Z M 0.71875 0 "/></g></g></g></svg>